<svg xmlns="http://www.w3.org/2000/svg" width="1084" height="677" fill="none" class="absolute bottom-0 z-0 md:max-w-full"><g clip-path="url(#a)" opacity=".2"><g filter="url(#b)"><ellipse cx="486.541" cy="481.787" fill="#8349FF" rx="324.094" ry="178.867" transform="rotate(-6.481 486.541 481.787)"/></g><g filter="url(#c)"><path fill="url(#d)" d="M714.294 371.683c29.526-41.833 31.214-73.763 45.947-122.801 28.441-94.659 7.495-156.823 41.298-249.702 68.975-189.515 188.25 407.04 18.598 516.088-106.648 68.552-418.719 84.986-324.641 0 37.572-33.94 73.532-30.356 115.963-57.981 43.791-28.509 72.703-42.914 102.835-85.604z"/></g><g filter="url(#e)"><path fill="#0013FF" d="M121.837 400.369C44.269 405.473-6.356 434.105-55.598 500.721c-99.754 134.953 483.072 177.823 401.904 29.562-51.179-93.481-125.391-136.432-224.469-129.914z"/></g><g filter="url(#f)"><path fill="#0FF" d="M125.099 437.789c-64.495 4.243-106.589 28.05-147.532 83.44-82.944 112.21 401.663 147.855 334.173 24.58-42.554-77.727-104.26-113.44-186.641-108.02z"/></g></g><defs><filter id="b" width="973.528" height="691.169" x="-.223" y="136.203" color-interpolation-filters="sRGB" filterUnits="userSpaceOnUse"><feFlood flood-opacity="0" result="BackgroundImageFix"/><feBlend in="SourceGraphic" in2="BackgroundImageFix" result="shape"/><feGaussianBlur result="effect1_foregroundBlur_11631_97147" stdDeviation="82.049"/></filter><filter id="c" width="702.442" height="884.235" x="341.302" y="-174.477" color-interpolation-filters="sRGB" filterUnits="userSpaceOnUse"><feFlood flood-opacity="0" result="BackgroundImageFix"/><feBlend in="SourceGraphic" in2="BackgroundImageFix" result="shape"/><feGaussianBlur result="effect1_foregroundBlur_11631_97147" stdDeviation="68.374"/></filter><filter id="e" width="749.407" height="551.89" x="-231.223" y="235.627" color-interpolation-filters="sRGB" filterUnits="userSpaceOnUse"><feFlood flood-opacity="0" result="BackgroundImageFix"/><feBlend in="SourceGraphic" in2="BackgroundImageFix" result="shape"/><feGaussianBlur result="effect1_foregroundBlur_11631_97147" stdDeviation="82.049"/></filter><filter id="f" width="569.024" height="404.794" x="-141.414" y="327.855" color-interpolation-filters="sRGB" filterUnits="userSpaceOnUse"><feFlood flood-opacity="0" result="BackgroundImageFix"/><feBlend in="SourceGraphic" in2="BackgroundImageFix" result="shape"/><feGaussianBlur result="effect1_foregroundBlur_11631_97147" stdDeviation="54.699"/></filter><linearGradient id="d" x1="772.549" x2="664.791" y1="172.85" y2="485.184" gradientUnits="userSpaceOnUse"><stop stop-color="#FF0095"/><stop offset="1" stop-color="#FFCDFF"/></linearGradient><clipPath id="a"><rect width="1084" height="677" fill="#fff" rx="20"/></clipPath></defs></svg>